<?xml version="1.0" encoding="UTF-8" standalone="no"?>
<!DOCTYPE svg PUBLIC "-//W3C//DTD SVG 1.1//EN" "http://www.w3.org/Graphics/SVG/1.1/DTD/svg11.dtd">
<svg width="100%" height="100%" viewBox="0 0 2048 736" version="1.1" xmlns="http://www.w3.org/2000/svg" xmlns:xlink="http://www.w3.org/1999/xlink" xml:space="preserve" xmlns:serif="http://www.serif.com/" style="fill-rule:evenodd;clip-rule:evenodd;stroke-linejoin:round;stroke-miterlimit:2;">
    <g id="logo.svg" transform="matrix(4.98297,0,0,4.98297,1024,268.445)">
        <g transform="matrix(1,0,0,1,-205.5,-42)">
            <g transform="matrix(1,0,0,1,0.78,0)">
                <g id="Images">
                    <g id="obs-logo-mono">
                        <g id="OPENBIOSIM" transform="matrix(1,0,0,1,94.22,18)">
                            <g id="BIOSIM" transform="matrix(1,0,0,1,160,0)">
                                <path id="Combined-Shape" d="M10.526,1C13.076,1 15.239,1.489 17.013,2.468C18.788,3.447 20.146,4.721 21.089,6.291C22.032,7.861 22.503,9.551 22.503,11.361C22.503,13.171 22.17,14.713 21.505,15.987C20.839,17.261 20.035,18.286 19.093,19.062C18.15,19.838 17.254,20.355 16.403,20.614L16.403,20.946C17.586,21.278 18.76,21.842 19.924,22.636C21.089,23.43 22.059,24.492 22.836,25.822C23.612,27.151 24,28.777 24,30.697C24,32.581 23.547,34.382 22.641,36.099C21.736,37.817 20.313,39.23 18.372,40.338C16.431,41.446 13.89,42 10.748,42L0,42L0,38.232L10.637,38.232C12.781,38.232 14.518,37.854 15.849,37.097C17.18,36.339 18.159,35.37 18.788,34.188C19.416,33.006 19.73,31.787 19.73,30.531C19.73,29.238 19.416,28.01 18.788,26.847C18.159,25.683 17.18,24.723 15.849,23.966C14.518,23.208 12.781,22.83 10.637,22.83L0,22.829L0,19.339L10.359,19.339C12.208,19.339 13.723,18.979 14.906,18.259C16.089,17.539 16.958,16.624 17.512,15.516C18.067,14.408 18.344,13.245 18.344,12.026C18.344,10.807 18.067,9.643 17.512,8.535C16.958,7.427 16.089,6.522 14.906,5.82C13.723,5.118 12.208,4.768 10.359,4.768L0,4.767L0,1L10.526,1Z" style="fill:white;fill-rule:nonzero;"/>
                                <rect id="Path" x="26" y="1" width="4" height="41" style="fill:white;fill-rule:nonzero;"/>
                                <path id="Shape" d="M52.5,42C49.305,42 46.487,41.401 44.044,40.204C41.602,39.007 39.564,37.404 37.93,35.396C36.296,33.388 35.066,31.132 34.239,28.626C33.413,26.121 33,23.561 33,20.945C33,18.366 33.413,15.824 34.239,13.318C35.066,10.813 36.296,8.557 37.93,6.549C39.564,4.541 41.602,2.947 44.044,1.768C46.487,0.589 49.305,0 52.5,0C55.695,0 58.504,0.589 60.928,1.768C63.352,2.947 65.381,4.541 67.015,6.549C68.649,8.557 69.888,10.813 70.733,13.318C71.578,15.824 72,18.366 72,20.945C72,23.561 71.578,26.121 70.733,28.626C69.888,31.132 68.649,33.388 67.015,35.396C65.381,37.404 63.352,39.007 60.928,40.204C58.504,41.401 55.695,42 52.5,42ZM52.5,38.021C55.475,38.021 58.1,37.275 60.377,35.783C62.654,34.291 64.435,32.255 65.72,29.676C67.006,27.097 67.648,24.187 67.648,20.945C67.648,17.739 67.006,14.857 65.72,12.296C64.435,9.736 62.654,7.709 60.377,6.217C58.1,4.725 55.475,3.979 52.5,3.979C49.489,3.979 46.845,4.725 44.568,6.217C42.291,7.709 40.51,9.736 39.225,12.296C37.939,14.857 37.297,17.739 37.297,20.945C37.297,24.187 37.939,27.097 39.225,29.676C40.51,32.255 42.291,34.291 44.568,35.783C46.845,37.275 49.489,38.021 52.5,38.021Z" style="fill:white;fill-rule:nonzero;"/>
                                <path id="Path1" serif:id="Path" d="M90.087,42C87.665,42 85.607,41.696 83.912,41.088C82.217,40.48 80.82,39.697 79.722,38.739C78.623,37.782 77.747,36.768 77.095,35.7C76.443,34.632 75.969,33.618 75.671,32.661C75.373,31.703 75.186,30.92 75.112,30.312C75.037,29.704 75,29.4 75,29.4L79.358,29.4C79.358,29.4 79.405,29.695 79.498,30.284C79.591,30.874 79.815,31.601 80.169,32.467C80.522,33.333 81.091,34.199 81.873,35.064C82.655,35.93 83.717,36.649 85.058,37.22C86.399,37.791 88.112,38.076 90.198,38.076C93.03,38.076 95.32,37.358 97.071,35.921C98.822,34.484 99.697,32.624 99.697,30.339C99.697,28.203 98.999,26.582 97.602,25.476C96.205,24.371 94.371,23.542 92.098,22.989L86.79,21.718C84.778,21.203 82.972,20.512 81.37,19.646C79.768,18.78 78.502,17.657 77.57,16.275C76.639,14.893 76.173,13.189 76.173,11.163C76.173,8.842 76.751,6.853 77.906,5.195C79.06,3.537 80.625,2.257 82.599,1.354C84.574,0.451 86.827,0 89.36,0C91.893,0 93.979,0.387 95.618,1.161C97.258,1.934 98.561,2.883 99.53,4.007C100.498,5.13 101.215,6.263 101.681,7.405C102.147,8.547 102.445,9.505 102.575,10.279C102.706,11.053 102.771,11.439 102.771,11.439L98.524,11.439C98.524,11.439 98.487,11.182 98.412,10.666C98.338,10.15 98.142,9.514 97.826,8.759C97.509,8.004 97.015,7.249 96.345,6.493C95.674,5.738 94.762,5.103 93.607,4.587C92.452,4.071 90.999,3.813 89.249,3.813C86.343,3.813 84.145,4.522 82.655,5.941C81.165,7.359 80.42,9.008 80.42,10.887C80.42,12.618 81.025,14 82.236,15.032C83.447,16.063 85.132,16.837 87.293,17.353L92.936,18.734C95.06,19.25 96.95,19.987 98.608,20.945C100.266,21.903 101.579,23.137 102.547,24.647C103.516,26.158 104,27.982 104,30.118C104,32.255 103.451,34.226 102.352,36.032C101.253,37.837 99.67,39.283 97.602,40.37C95.535,41.457 93.03,42 90.087,42Z" style="fill:white;fill-rule:nonzero;"/>
                                <rect id="Path2" serif:id="Path" x="108" y="1" width="4" height="41" style="fill:white;fill-rule:nonzero;"/>
                                <path id="Combined-Shape1" serif:id="Combined-Shape" d="M126.706,1L137,26.597L150.294,1L156,1L156,42L151.79,42L151.79,7.095L138.994,31.473L135.006,31.473L124,5.686L124,42L120,42L120,1L126.706,1Z" style="fill:white;fill-rule:nonzero;"/>
                            </g>
                            <g id="OPEN">
                                <path id="Shape1" serif:id="Shape" d="M21.028,42C17.523,42 14.461,41.401 11.842,40.204C9.223,39.007 7.037,37.404 5.285,35.396C3.532,33.388 2.213,31.132 1.328,28.626C0.443,26.121 0,23.561 0,20.945C0,18.329 0.443,15.778 1.328,13.291C2.213,10.804 3.532,8.566 5.285,6.576C7.037,4.587 9.223,2.993 11.842,1.796C14.461,0.599 17.523,0 21.028,0C24.495,0 27.539,0.599 30.158,1.796C32.777,2.993 34.963,4.587 36.715,6.576C38.468,8.566 39.787,10.804 40.672,13.291C41.557,15.778 42,18.329 42,20.945C42,23.561 41.557,26.121 40.672,28.626C39.787,31.132 38.468,33.388 36.715,35.396C34.963,37.404 32.777,39.007 30.158,40.204C27.539,41.401 24.495,42 21.028,42ZM21.028,33.434C23.426,33.434 25.445,32.826 27.087,31.611C28.729,30.395 29.964,28.838 30.794,26.941C31.625,25.043 32.04,23.045 32.04,20.945C32.04,18.882 31.625,16.901 30.794,15.004C29.964,13.107 28.729,11.55 27.087,10.334C25.445,9.118 23.426,8.511 21.028,8.511C18.593,8.511 16.555,9.118 14.913,10.334C13.271,11.55 12.045,13.107 11.233,15.004C10.422,16.901 10.016,18.882 10.016,20.945C10.016,23.045 10.422,25.043 11.233,26.941C12.045,28.838 13.271,30.395 14.913,31.611C16.555,32.826 18.593,33.434 21.028,33.434Z" style="fill:white;fill-rule:nonzero;"/>
                                <path id="Shape2" serif:id="Shape" d="M45,42L45,1L62.633,1C66.06,1 68.916,1.665 71.201,2.995C73.486,4.324 75.19,6.042 76.314,8.147C77.438,10.253 78,12.45 78,14.741C78,17.068 77.438,19.284 76.314,21.389C75.19,23.495 73.486,25.221 71.201,26.57C68.916,27.918 66.06,28.592 62.633,28.592L54.563,28.592L54.563,42L45,42ZM62.578,9.366L54.563,9.366L54.563,20.281L62.578,20.281C64.531,20.281 65.987,19.709 66.945,18.564C67.903,17.418 68.382,16.163 68.382,14.796C68.382,13.429 67.903,12.183 66.945,11.056C65.987,9.93 64.531,9.366 62.578,9.366Z" style="fill:white;fill-rule:nonzero;"/>
                                <path id="Path3" serif:id="Path" d="M80,42L80,1L108.725,1L108.725,9.311L89.502,9.311L89.502,17.234L106.254,17.234L106.254,25.157L89.502,25.157L89.502,33.689L109,33.689L109,42L80,42Z" style="fill:white;fill-rule:nonzero;"/>
                                <path id="Path4" serif:id="Path" d="M112,42L112,1L120.89,1L137.439,25.434L137.439,1L147,1L147,42L138.054,42L121.617,18.508L121.617,42L112,42Z" style="fill:white;fill-rule:nonzero;"/>
                            </g>
                        </g>
                        <g id="Emblem---Mono" serif:id="Emblem-/-Mono">
                            <path id="Emblem-Colour" d="M32.184,0L44.777,6.995L44.777,19.004L54.403,25.133L64.367,19.6L76.961,26.595L76.961,40.605L64.367,47.6L54.349,42.036L44.777,47.748L44.777,71.056L22.388,84L0,71.033L0,45.144L22.388,32.2L43.297,44.288L51.773,39.231L51.773,27.872L42.753,22.129L32.184,28L19.59,21.005L19.59,6.995L32.184,0ZM22.388,36.327L3.582,47.208L3.582,68.969L22.388,79.85L41.195,68.969L41.195,47.208L22.388,36.327ZM64.367,23.606L55.372,28.608L55.372,38.613L64.367,43.616L73.362,38.613L73.362,28.608L64.367,23.606ZM32.184,3.985L23.189,8.987L23.189,18.992L32.184,23.994L41.179,18.992L41.179,8.987L32.184,3.985Z" style="fill:white;fill-rule:nonzero;"/>
                        </g>
                    </g>
                </g>
            </g>
        </g>
    </g>
    <g id="logo.svg1" serif:id="logo.svg" transform="matrix(3.73205,0,0,3.73205,448.725,518.813)">
        <clipPath id="_clip1">
            <rect x="45.347" y="-42" width="160.153" height="84.485"/>
        </clipPath>
        <g clip-path="url(#_clip1)">
            <g transform="matrix(1,0,0,1,-205.5,-42)">
                <g transform="matrix(1,0,0,1,0.78,0)">
                    <g id="Images1" serif:id="Images">
                        <g id="obs-logo-mono1" serif:id="obs-logo-mono">
                            <g id="OPENBIOSIM1" serif:id="OPENBIOSIM" transform="matrix(1,0,0,1,94.22,18)">
                                <g id="BIOSIM1" serif:id="BIOSIM" transform="matrix(1,0,0,1,160,0)">
                                    <path id="Combined-Shape2" serif:id="Combined-Shape" d="M10.526,1C13.076,1 15.239,1.489 17.013,2.468C18.788,3.447 20.146,4.721 21.089,6.291C22.032,7.861 22.503,9.551 22.503,11.361C22.503,13.171 22.17,14.713 21.505,15.987C20.839,17.261 20.035,18.286 19.093,19.062C18.15,19.838 17.254,20.355 16.403,20.614L16.403,20.946C17.586,21.278 18.76,21.842 19.924,22.636C21.089,23.43 22.059,24.492 22.836,25.822C23.612,27.151 24,28.777 24,30.697C24,32.581 23.547,34.382 22.641,36.099C21.736,37.817 20.313,39.23 18.372,40.338C16.431,41.446 13.89,42 10.748,42L0,42L0,38.232L10.637,38.232C12.781,38.232 14.518,37.854 15.849,37.097C17.18,36.339 18.159,35.37 18.788,34.188C19.416,33.006 19.73,31.787 19.73,30.531C19.73,29.238 19.416,28.01 18.788,26.847C18.159,25.683 17.18,24.723 15.849,23.966C14.518,23.208 12.781,22.83 10.637,22.83L0,22.829L0,19.339L10.359,19.339C12.208,19.339 13.723,18.979 14.906,18.259C16.089,17.539 16.958,16.624 17.512,15.516C18.067,14.408 18.344,13.245 18.344,12.026C18.344,10.807 18.067,9.643 17.512,8.535C16.958,7.427 16.089,6.522 14.906,5.82C13.723,5.118 12.208,4.768 10.359,4.768L0,4.767L0,1L10.526,1Z" style="fill:white;fill-rule:nonzero;"/>
                                    <rect id="Path5" serif:id="Path" x="26" y="1" width="4" height="41" style="fill:white;fill-rule:nonzero;"/>
                                    <path id="Shape3" serif:id="Shape" d="M52.5,42C49.305,42 46.487,41.401 44.044,40.204C41.602,39.007 39.564,37.404 37.93,35.396C36.296,33.388 35.066,31.132 34.239,28.626C33.413,26.121 33,23.561 33,20.945C33,18.366 33.413,15.824 34.239,13.318C35.066,10.813 36.296,8.557 37.93,6.549C39.564,4.541 41.602,2.947 44.044,1.768C46.487,0.589 49.305,0 52.5,0C55.695,0 58.504,0.589 60.928,1.768C63.352,2.947 65.381,4.541 67.015,6.549C68.649,8.557 69.888,10.813 70.733,13.318C71.578,15.824 72,18.366 72,20.945C72,23.561 71.578,26.121 70.733,28.626C69.888,31.132 68.649,33.388 67.015,35.396C65.381,37.404 63.352,39.007 60.928,40.204C58.504,41.401 55.695,42 52.5,42ZM52.5,38.021C55.475,38.021 58.1,37.275 60.377,35.783C62.654,34.291 64.435,32.255 65.72,29.676C67.006,27.097 67.648,24.187 67.648,20.945C67.648,17.739 67.006,14.857 65.72,12.296C64.435,9.736 62.654,7.709 60.377,6.217C58.1,4.725 55.475,3.979 52.5,3.979C49.489,3.979 46.845,4.725 44.568,6.217C42.291,7.709 40.51,9.736 39.225,12.296C37.939,14.857 37.297,17.739 37.297,20.945C37.297,24.187 37.939,27.097 39.225,29.676C40.51,32.255 42.291,34.291 44.568,35.783C46.845,37.275 49.489,38.021 52.5,38.021Z" style="fill:white;fill-rule:nonzero;"/>
                                    <path id="Path6" serif:id="Path" d="M90.087,42C87.665,42 85.607,41.696 83.912,41.088C82.217,40.48 80.82,39.697 79.722,38.739C78.623,37.782 77.747,36.768 77.095,35.7C76.443,34.632 75.969,33.618 75.671,32.661C75.373,31.703 75.186,30.92 75.112,30.312C75.037,29.704 75,29.4 75,29.4L79.358,29.4C79.358,29.4 79.405,29.695 79.498,30.284C79.591,30.874 79.815,31.601 80.169,32.467C80.522,33.333 81.091,34.199 81.873,35.064C82.655,35.93 83.717,36.649 85.058,37.22C86.399,37.791 88.112,38.076 90.198,38.076C93.03,38.076 95.32,37.358 97.071,35.921C98.822,34.484 99.697,32.624 99.697,30.339C99.697,28.203 98.999,26.582 97.602,25.476C96.205,24.371 94.371,23.542 92.098,22.989L86.79,21.718C84.778,21.203 82.972,20.512 81.37,19.646C79.768,18.78 78.502,17.657 77.57,16.275C76.639,14.893 76.173,13.189 76.173,11.163C76.173,8.842 76.751,6.853 77.906,5.195C79.06,3.537 80.625,2.257 82.599,1.354C84.574,0.451 86.827,0 89.36,0C91.893,0 93.979,0.387 95.618,1.161C97.258,1.934 98.561,2.883 99.53,4.007C100.498,5.13 101.215,6.263 101.681,7.405C102.147,8.547 102.445,9.505 102.575,10.279C102.706,11.053 102.771,11.439 102.771,11.439L98.524,11.439C98.524,11.439 98.487,11.182 98.412,10.666C98.338,10.15 98.142,9.514 97.826,8.759C97.509,8.004 97.015,7.249 96.345,6.493C95.674,5.738 94.762,5.103 93.607,4.587C92.452,4.071 90.999,3.813 89.249,3.813C86.343,3.813 84.145,4.522 82.655,5.941C81.165,7.359 80.42,9.008 80.42,10.887C80.42,12.618 81.025,14 82.236,15.032C83.447,16.063 85.132,16.837 87.293,17.353L92.936,18.734C95.06,19.25 96.95,19.987 98.608,20.945C100.266,21.903 101.579,23.137 102.547,24.647C103.516,26.158 104,27.982 104,30.118C104,32.255 103.451,34.226 102.352,36.032C101.253,37.837 99.67,39.283 97.602,40.37C95.535,41.457 93.03,42 90.087,42Z" style="fill:white;fill-rule:nonzero;"/>
                                    <rect id="Path7" serif:id="Path" x="108" y="1" width="4" height="41" style="fill:white;fill-rule:nonzero;"/>
                                    <path id="Combined-Shape3" serif:id="Combined-Shape" d="M126.706,1L137,26.597L150.294,1L156,1L156,42L151.79,42L151.79,7.095L138.994,31.473L135.006,31.473L124,5.686L124,42L120,42L120,1L126.706,1Z" style="fill:white;fill-rule:nonzero;"/>
                                </g>
                                <g id="OPEN1" serif:id="OPEN">
                                    <path id="Shape4" serif:id="Shape" d="M21.028,42C17.523,42 14.461,41.401 11.842,40.204C9.223,39.007 7.037,37.404 5.285,35.396C3.532,33.388 2.213,31.132 1.328,28.626C0.443,26.121 0,23.561 0,20.945C0,18.329 0.443,15.778 1.328,13.291C2.213,10.804 3.532,8.566 5.285,6.576C7.037,4.587 9.223,2.993 11.842,1.796C14.461,0.599 17.523,0 21.028,0C24.495,0 27.539,0.599 30.158,1.796C32.777,2.993 34.963,4.587 36.715,6.576C38.468,8.566 39.787,10.804 40.672,13.291C41.557,15.778 42,18.329 42,20.945C42,23.561 41.557,26.121 40.672,28.626C39.787,31.132 38.468,33.388 36.715,35.396C34.963,37.404 32.777,39.007 30.158,40.204C27.539,41.401 24.495,42 21.028,42ZM21.028,33.434C23.426,33.434 25.445,32.826 27.087,31.611C28.729,30.395 29.964,28.838 30.794,26.941C31.625,25.043 32.04,23.045 32.04,20.945C32.04,18.882 31.625,16.901 30.794,15.004C29.964,13.107 28.729,11.55 27.087,10.334C25.445,9.118 23.426,8.511 21.028,8.511C18.593,8.511 16.555,9.118 14.913,10.334C13.271,11.55 12.045,13.107 11.233,15.004C10.422,16.901 10.016,18.882 10.016,20.945C10.016,23.045 10.422,25.043 11.233,26.941C12.045,28.838 13.271,30.395 14.913,31.611C16.555,32.826 18.593,33.434 21.028,33.434Z" style="fill:white;fill-rule:nonzero;"/>
                                    <path id="Shape5" serif:id="Shape" d="M45,42L45,1L62.633,1C66.06,1 68.916,1.665 71.201,2.995C73.486,4.324 75.19,6.042 76.314,8.147C77.438,10.253 78,12.45 78,14.741C78,17.068 77.438,19.284 76.314,21.389C75.19,23.495 73.486,25.221 71.201,26.57C68.916,27.918 66.06,28.592 62.633,28.592L54.563,28.592L54.563,42L45,42ZM62.578,9.366L54.563,9.366L54.563,20.281L62.578,20.281C64.531,20.281 65.987,19.709 66.945,18.564C67.903,17.418 68.382,16.163 68.382,14.796C68.382,13.429 67.903,12.183 66.945,11.056C65.987,9.93 64.531,9.366 62.578,9.366Z" style="fill:white;fill-rule:nonzero;"/>
                                    <path id="Path8" serif:id="Path" d="M80,42L80,1L108.725,1L108.725,9.311L89.502,9.311L89.502,17.234L106.254,17.234L106.254,25.157L89.502,25.157L89.502,33.689L109,33.689L109,42L80,42Z" style="fill:white;fill-rule:nonzero;"/>
                                    <path id="Path9" serif:id="Path" d="M112,42L112,1L120.89,1L137.439,25.434L137.439,1L147,1L147,42L138.054,42L121.617,18.508L121.617,42L112,42Z" style="fill:white;fill-rule:nonzero;"/>
                                </g>
                            </g>
                            <g id="Emblem---Mono1" serif:id="Emblem-/-Mono">
                            </g>
                        </g>
                    </g>
                </g>
            </g>
        </g>
    </g>
    <g transform="matrix(10.6435,0,0,14.19,-7395.39,-6318.18)">
        <text x="813.062px" y="486.834px" style="font-family:'Verdana-Bold', 'Verdana', sans-serif;font-weight:700;font-size:15.335px;fill:white;">SPACE</text>
    </g>
    <g id="bss_logo.svg" transform="matrix(3.39418,0,0,3.39418,439.24,521.522)">
        <g transform="matrix(1,0,0,1,-32,-32)">
            <g id="Page-1">
                <g id="Home-V1">
                    <g id="_PRODUCTS">
                        <g id="Products">
                            <g id="Icon-bss">
                                <g id="icon-bss">
                                    <path id="Path10" serif:id="Path" d="M32,20.8C25.824,20.8 20.8,25.824 20.8,32C20.8,38.176 25.824,43.2 32,43.2C38.176,43.2 43.2,38.176 43.2,32C43.2,25.824 38.176,20.8 32,20.8Z" style="fill:white;fill-rule:nonzero;"/>
                                    <path id="Path11" serif:id="Path" d="M13.988,11.327C14.649,10.208 15.054,8.919 15.054,7.527C15.054,3.376 11.678,0 7.527,0C3.376,0 0,3.376 0,7.527C0,11.678 3.376,15.054 7.527,15.054C8.919,15.054 10.208,14.649 11.327,13.988L20.272,22.933C21.047,21.937 21.937,21.047 22.933,20.272L13.988,11.327Z" style="fill:white;fill-rule:nonzero;"/>
                                    <path id="Path12" serif:id="Path" d="M52.356,4.267C48.287,4.267 44.978,7.575 44.978,11.644C44.978,13.009 45.375,14.272 46.023,15.369L41.067,20.325C42.044,21.084 42.916,21.956 43.675,22.933L48.631,17.977C49.728,18.625 50.991,19.022 52.356,19.022C56.425,19.022 59.733,15.713 59.733,11.644C59.733,7.575 56.425,4.267 52.356,4.267Z" style="fill:white;fill-rule:nonzero;"/>
                                    <path id="Path13" serif:id="Path" d="M17.306,33.349L14.246,34.041C12.981,31.573 10.478,29.867 7.567,29.867C3.394,29.867 0,33.335 0,37.6C0,41.865 3.394,45.333 7.567,45.333C11.672,45.333 15.006,41.973 15.114,37.805L18.133,37.123C17.701,35.927 17.436,34.662 17.306,33.349Z" style="fill:white;fill-rule:nonzero;"/>
                                    <path id="Path14" serif:id="Path" d="M56.611,33.6C54.044,33.6 51.784,34.978 50.459,37.062L46.721,35.549C46.404,36.819 45.931,38.012 45.333,39.133L49.279,40.733C49.264,40.935 49.221,41.128 49.221,41.333C49.221,45.598 52.535,49.067 56.611,49.067C60.686,49.067 64,45.598 64,41.333C64,37.068 60.686,33.6 56.611,33.6Z" style="fill:white;fill-rule:nonzero;"/>
                                    <path id="Path15" serif:id="Path" d="M34.2,48.914L34.2,46.4C33.56,46.481 32.929,46.594 32.267,46.594C31.605,46.594 30.974,46.481 30.333,46.4L30.333,48.914C27.007,49.773 24.533,52.753 24.533,56.321C24.533,60.556 28.002,64 32.267,64C36.532,64 40,60.556 40,56.321C40,52.753 37.526,49.773 34.2,48.914Z" style="fill:white;fill-rule:nonzero;"/>
                                </g>
                            </g>
                        </g>
                    </g>
                </g>
            </g>
        </g>
    </g>
</svg>
